<svg xmlns="http://www.w3.org/2000/svg" viewBox="0 0 512 512" fill="none" role="img" aria-label="RouteMeRight">
  <!-- R kao put: jedan neprekinut put sa rupom, isprekidana linija kroz sredinu -->
  <g stroke-linecap="butt" stroke-linejoin="round">
    <path d="M170 414 V206 Q170 161 215 161 H274 A81 81 0 0 1 274 323 L340 430" stroke="#c2570a" stroke-width="80"/>
    <path d="M170 414 V206 Q170 161 215 161 H274 A81 81 0 0 1 274 323 L340 430" stroke="#f97316" stroke-width="66"/>
    <path d="M170 407 V206 Q170 161 215 161 H274 A81 81 0 0 1 274 323 L333 421" stroke="#ffffff" stroke-width="7" stroke-dasharray="17 24"/>
  </g>
  <!-- start (zelena) i cilj (šahovska) tačka -->
  <circle cx="170" cy="414" r="12" fill="#22c55e" stroke="#0f172a" stroke-width="5"/>
  <circle cx="340" cy="430" r="13" fill="#ffffff" stroke="#c2570a" stroke-width="5"/>
  <rect x="333" y="423" width="7" height="7" fill="#111111"/>
  <rect x="340" y="430" width="7" height="7" fill="#111111"/>
</svg>
